 <svg  xmlns="http://www.w3.org/2000/svg" viewBox="0 0 512 512" >

<g transform="translate(0.000000,512.000000) scale(0.100000,-0.100000)"
fill="currentColor" stroke="none">
<path d="M1348 5104 c-32 -17 -48 -43 -48 -78 0 -53 20 -74 114 -119 112 -54
224 -142 311 -244 76 -90 110 -109 161 -93 43 15 64 44 64 92 0 30 -11 50 -60
112 -107 133 -233 234 -376 302 -98 47 -124 52 -166 28z"/>
<path d="M3605 5077 c-143 -70 -269 -172 -375 -303 -49 -62 -60 -82 -60 -112
0 -48 21 -77 64 -92 51 -16 85 3 161 93 86 102 193 185 309 242 64 32 97 54
105 71 30 66 -4 132 -74 140 -33 4 -57 -3 -130 -39z"/>
<path d="M1998 4390 c-26 -27 -29 -36 -25 -73 5 -51 111 -303 140 -334 31 -35
90 -31 129 7 27 28 30 36 26 78 -6 61 -104 289 -139 325 -39 38 -90 37 -131
-3z"/>
<path d="M2997 4400 c-24 -19 -89 -155 -137 -287 -20 -55 -21 -67 -10 -93 32
-78 146 -77 182 2 64 140 118 280 118 307 0 73 -94 117 -153 71z"/>
<path d="M804 4340 c-32 -13 -64 -59 -64 -92 0 -38 57 -98 93 -98 37 0 192
-47 282 -86 90 -38 104 -40 144 -20 53 28 66 97 26 144 -56 67 -414 180 -481
152z"/>
<path d="M4195 4334 c-168 -37 -353 -116 -373 -159 -23 -51 -6 -107 39 -131
40 -20 54 -18 144 20 90 39 245 86 282 86 37 0 93 60 93 99 0 39 -45 89 -85
96 -16 2 -61 -3 -100 -11z"/>
<path d="M1446 3979 c-47 -56 -38 -85 61 -193 93 -102 121 -118 174 -96 32 14
59 55 59 92 0 34 -31 79 -108 158 -66 66 -72 70 -115 70 -38 0 -49 -5 -71 -31z"/>
<path d="M3488 3940 c-77 -79 -108 -124 -108 -158 0 -37 27 -78 59 -92 53 -22
81 -6 174 96 99 108 108 137 61 193 -22 26 -33 31 -71 31 -43 0 -49 -4 -115
-70z"/>
<path d="M2254 3754 c-32 -16 -54 -50 -54 -84 0 -11 13 -79 29 -152 17 -73 42
-209 56 -303 24 -161 27 -171 55 -197 42 -39 91 -38 131 1 20 21 29 39 29 63
0 91 -94 589 -120 638 -10 19 -65 50 -87 50 -4 0 -22 -7 -39 -16z"/>
<path d="M2783 3755 c-17 -7 -37 -23 -43 -35 -26 -49 -120 -547 -120 -638 0
-24 9 -42 29 -63 40 -39 89 -40 131 -1 28 26 31 36 55 197 14 94 39 230 56
303 16 73 29 141 29 152 0 35 -22 69 -55 85 -39 18 -41 18 -82 0z"/>
<path d="M1769 3531 c-38 -39 -37 -68 6 -179 19 -49 48 -140 64 -203 23 -89
36 -119 56 -136 39 -34 89 -31 127 8 29 28 30 34 25 87 -11 118 -103 379 -148
424 -39 39 -90 38 -130 -1z"/>
<path d="M3221 3532 c-45 -45 -137 -306 -148 -424 -5 -53 -4 -59 25 -87 38
-39 88 -42 127 -8 20 17 33 47 56 136 16 63 45 154 64 203 43 111 44 140 6
179 -40 39 -91 40 -130 1z"/>
<path d="M2226 2829 c-64 -15 -153 -69 -202 -121 -203 -217 -111 -569 174
-662 l52 -18 0 -94 0 -94 -95 0 c-75 0 -104 -4 -134 -20 -48 -24 -87 -70 -101
-118 -6 -22 -10 -182 -10 -402 l0 -365 -64 0 c-57 0 -69 -4 -103 -31 -21 -17
-58 -56 -83 -87 l-45 -57 -25 32 c-54 70 -106 121 -144 140 -82 42 -172 5
-252 -105 -25 -34 -49 -63 -52 -64 -4 -1 -23 20 -42 48 -50 71 -88 92 -154 87
-57 -5 -95 -27 -120 -70 -14 -22 -16 -74 -16 -376 0 -346 0 -349 23 -383 12
-19 38 -42 57 -51 33 -17 133 -18 1670 -18 1537 0 1637 1 1670 18 19 9 45 32
57 51 23 34 23 37 23 388 l0 354 -38 41 c-33 35 -46 41 -89 45 -69 7 -111 -15
-159 -82 -22 -30 -42 -53 -46 -52 -3 1 -27 30 -52 64 -80 110 -170 147 -252
105 -39 -20 -93 -72 -144 -141 l-26 -33 -29 41 c-16 23 -53 64 -82 91 -88 80
-158 80 -246 0 -29 -27 -66 -68 -82 -91 l-29 -41 -26 33 c-51 69 -105 121
-144 141 -82 42 -172 5 -252 -105 -25 -34 -49 -63 -52 -64 -4 -1 -27 26 -51
59 -25 33 -65 74 -90 89 -98 63 -212 23 -294 -101 -16 -23 -17 3 -17 408 l0
432 450 0 450 0 0 -275 c0 -296 3 -316 51 -341 42 -21 75 -17 111 15 l33 29 3
291 c3 312 -1 349 -45 401 -45 54 -90 70 -198 70 l-95 0 0 94 0 94 53 17 c189
60 313 261 278 451 -25 136 -111 246 -239 307 l-67 32 -315 2 c-173 1 -332 -3
-354 -8z m652 -205 c140 -58 175 -231 69 -338 -62 -62 -87 -66 -387 -66 -300
0 -325 4 -387 66 -104 104 -75 266 62 337 44 24 587 25 643 1z m-200 -691 l-3
-88 -115 0 -115 0 -3 88 -3 87 121 0 121 0 -3 -87z m-1193 -1356 c58 -109 76
-127 130 -127 51 0 64 13 134 140 29 52 65 107 79 122 l25 27 29 -37 c17 -20
52 -79 80 -130 53 -98 76 -122 120 -122 54 0 77 21 124 109 24 47 61 108 80
135 l37 49 28 -34 c16 -19 51 -78 79 -131 55 -107 77 -128 130 -128 53 0 73
20 128 124 27 52 62 111 78 131 l28 38 31 -36 c17 -20 55 -81 84 -136 29 -56
61 -105 71 -111 10 -5 37 -10 59 -10 47 0 59 13 133 145 27 50 61 101 75 115
l24 25 29 -34 c15 -18 48 -69 72 -113 65 -120 82 -138 130 -138 21 0 48 5 58
10 11 6 40 51 65 100 26 49 63 110 82 136 l36 47 28 -34 c15 -19 51 -78 79
-131 56 -108 77 -128 130 -128 49 0 75 21 110 88 l29 57 1 -197 0 -198 -1560
0 -1560 0 0 198 c0 209 0 207 45 120 28 -53 49 -68 97 -68 50 0 72 21 126 124
27 52 62 111 78 131 l28 37 33 -38 c17 -21 53 -78 78 -127z"/>
</g>
</svg>
